<svg id="Background" xmlns="http://www.w3.org/2000/svg" width="1329.067" height="400" viewBox="0 0 1329.067 400">
  <metadata><?xpacket begin="﻿" id="W5M0MpCehiHzreSzNTczkc9d"?>
<x:xmpmeta xmlns:x="adobe:ns:meta/" x:xmptk="Adobe XMP Core 5.6-c142 79.160924, 2017/07/13-01:06:39        ">
   <rdf:RDF xmlns:rdf="http://www.w3.org/1999/02/22-rdf-syntax-ns#">
      <rdf:Description rdf:about=""/>
   </rdf:RDF>
</x:xmpmeta>
                                                                                                    
                                                                                                    
                                                                                                    
                                                                                                    
                                                                                                    
                                                                                                    
                                                                                                    
                                                                                                    
                                                                                                    
                                                                                                    
                                                                                                    
                                                                                                    
                                                                                                    
                                                                                                    
                                                                                                    
                                                                                                    
                                                                                                    
                                                                                                    
                                                                                                    
                                                                                                    
                           
<?xpacket end="w"?></metadata>
<defs>
    <style>
      .cls-1 {
        fill: #05445a;
      }

      .cls-2, .cls-3 {
        fill: #07516b;
      }

      .cls-2, .cls-5 {
        fill-rule: evenodd;
      }

      .cls-4 {
        fill: #22a7f0;
      }

      .cls-5 {
        fill: none;
        stroke: #05445a;
        stroke-width: 3px;
      }
    </style>
  </defs>
  <circle class="cls-1" cx="897.892" cy="378.141" r="4.045"/>
  <circle id="Ellipse_2_copy" data-name="Ellipse 2 copy" class="cls-1" cx="907.577" cy="368.438" r="4.05"/>
  <path class="cls-2" d="M1344.62,434.844a7.281,7.281,0,1,1-7.28,7.281A7.283,7.283,0,0,1,1344.62,434.844Z" transform="translate(-118.313 -150.625)"/>
  <path id="Ellipse_3_copy" data-name="Ellipse 3 copy" class="cls-2" d="M1364.84,417.031a7.282,7.282,0,1,1-7.28,7.281A7.275,7.275,0,0,1,1364.84,417.031Z" transform="translate(-118.313 -150.625)"/>
  <circle class="cls-3" cx="31.125" cy="99.188" r="6.875"/>
  <ellipse id="Ellipse_1_copy_10" data-name="Ellipse 1 copy 10" class="cls-3" cx="497.062" cy="64.359" rx="6.875" ry="6.891"/>
  <circle id="Ellipse_1_copy_7" data-name="Ellipse 1 copy 7" class="cls-3" cx="1322.172" cy="14.156" r="6.895"/>
  <ellipse id="Ellipse_1_copy_8" data-name="Ellipse 1 copy 8" class="cls-4" cx="528.593" cy="393.125" rx="6.875" ry="6.875"/>
  <circle id="Ellipse_1_copy_9" data-name="Ellipse 1 copy 9" class="cls-3" cx="6.859" cy="380.969" r="6.859"/>
  <circle id="Ellipse_1_copy_3" data-name="Ellipse 1 copy 3" class="cls-4" cx="1115.887" cy="57.078" r="3.64"/>
  <circle id="Ellipse_1_copy_11" data-name="Ellipse 1 copy 11" class="cls-1" cx="564.202" cy="10.922" r="3.64"/>
  <circle id="Ellipse_1_copy_4" data-name="Ellipse 1 copy 4" class="cls-1" cx="817.391" cy="270.047" r="3.641"/>
  <circle id="Ellipse_1_copy_5" data-name="Ellipse 1 copy 5" class="cls-4" cx="209.906" cy="3.641" r="3.625"/>
  <circle id="Ellipse_1_copy_6" data-name="Ellipse 1 copy 6" class="cls-1" cx="507.577" cy="223.078" r="3.64"/>
  <circle id="Ellipse_1_copy" data-name="Ellipse 1 copy" class="cls-3" cx="318.312" cy="363.172" r="6.875"/>
  <ellipse id="Ellipse_1_copy_2" data-name="Ellipse 1 copy 2" class="cls-3" cx="345" cy="336.438" rx="6.875" ry="6.875"/>
  <path class="cls-5" d="M938.011,180.575c7.395,0,12.549,4.589,10.66,11.772-2,7.595-12.039,15.759-22.559,15.759-10.1,0-13.728-7.792-8.937-15.759C921.56,185.057,930.741,180.575,938.011,180.575Z" transform="translate(-118.313 -150.625)"/>
  <path id="Ellipse_4_copy" data-name="Ellipse 4 copy" class="cls-5" d="M291.832,387.061c4.05,0,6.872,2.565,5.838,6.579-1.094,4.244-6.593,8.807-12.354,8.807-5.531,0-7.518-4.355-4.894-8.807A14.182,14.182,0,0,1,291.832,387.061Z" transform="translate(-118.313 -150.625)"/>
</svg>
