<?xml version="1.0" encoding="utf-8"?>
<!-- Generator: Adobe Illustrator 21.0.2, SVG Export Plug-In . SVG Version: 6.00 Build 0)  -->
<svg version="1.1" id="Layer_1" xmlns="http://www.w3.org/2000/svg" xmlns:xlink="http://www.w3.org/1999/xlink" x="0px" y="0px"
	 viewBox="0 0 433 296" style="enable-background:new 0 0 433 296;" xml:space="preserve">
<style type="text/css">
	.st0{fill:#06CEC1;}
	.st1{fill:#EFEFEF;}
</style>
<path class="st0" d="M291.8,97.2C282.2,88,258.8,87,255.4,87H250c0.5,0,0.9,1,1.3,2c1.2,3,1.8,6,1.8,9.5c0,3.6-0.6,7.5-1.8,10.5
	c-0.1,0.1-0.1,1-0.2,1h4.4c8.6,0,14.9,2,17,3.8c4,3.4,5.9,8.4,5.9,15.1c0,6.2-2,11.9-5.9,15.7c-4,3.7-9.6,6.4-17,6.4h-101l-16.3,28
	h117.3c8.2,0,15.4-2.3,21.5-4.6c6.1-2.3,11.2-6.1,15.2-10.2c4-4.1,7.1-9.2,9.1-14.9c2-5.6,3-11.6,3-18.2
	C304.3,115.9,299.9,104.9,291.8,97.2z"/>
<path class="st0" d="M148.2,95.9c5.9,5.7,13.6,9.3,21.5,11.6c6.2,1.8,12.5,2.3,18.9,2.3c-0.1,0-2-7.1-2-11.4c0-3.6,2-12.4,2.4-12.4
	c-6.5,0-14.1-0.1-19.6-4.1c-4.5-3.3-5.9-10.2-5.9-15.4c0-6,1.9-10.9,5.3-14.3c3.5-3.4,8.5-5.2,14.8-5.2h96.4l16.3-25H183.7
	c-7.8,0-14.7,0-20.7,2.2c-6,2.2-11.1,4.7-15.2,8.6c-4.1,3.9-7.2,8.2-9.3,13.6c-2.1,5.4-3.1,11.1-3.1,17.5c0,6.5,1.1,12.4,3.4,17.9
	C140.9,87.3,144.1,91.9,148.2,95.9z"/>
<path class="st1" d="M229,128h-18.6c-3.4,0-6.6-1.4-9.5-2.7c-2.9-1.3-5.4-2.3-7.5-4.5c-2-2.1-3.6-4.8-4.8-6.8h-5.2
	c-3.1,0-6-1.3-8.8-1.7c0.4,1.7,0.9,2.8,1.5,4.4c1.9,4.8,4.5,8.6,7.8,12.1c3.3,3.5,7.3,6.2,11.8,8.2c4.5,2,9.4,3,14.8,3H229
	c5.5,0,10.5-1.1,15-3.1c4.6-2,8.5-4.8,11.8-8.3c3.3-3.5,5.9-7.6,7.8-12.4c0.4-1.1,0.8-1.1,1.1-2.2c-2.7-0.8-5.8,0-9.3,0h-4.4
	c-1.2,2-2.8,4.3-4.8,6.4c-2.1,2.2-4.7,4.2-7.6,5.5C235.7,127.1,232.5,128,229,128z"/>
<path class="st1" d="M255.4,83c3.3,0,6.4-0.2,9.4,0.1c-0.3-1.3-0.8-2.7-1.2-3.9c-1.8-4.6-4.4-8.6-7.7-11.9
	c-3.3-3.3-7.2-5.3-11.8-7.1c-4.6-1.8-9.7-2.2-15.2-2.2h-18.6c-5.3,0-10.3,0.3-14.8,2.1c-4.5,1.8-8.4,4-11.8,7.3
	c-3.3,3.3-5.9,7-7.8,11.7c-0.3,0.7-0.5,1.7-0.7,2.4c2.4,0.8,5.1,1.6,8.2,1.6h6.1c1-1,2.2-4,3.7-5.5c2.1-2.2,4.6-2.6,7.5-3.9
	c2.9-1.2,6.1-0.6,9.5-0.6H229c3.5,0,6.7-0.8,9.7,0.4c2.9,1.2,5.5,2.6,7.6,4.8c1.5,1.5,2.7,3.8,3.7,4.8H255.4z"/>
<path class="st1" d="M214.4,118.8c-2.8,0-5.3-0.5-7.7-1.6c-2.3-1-4.4-2.5-6.1-4.3c-1.7-1.8-3.1-3.9-4-6.4c-1-2.5-1.4-5.1-1.4-8
	c0-2.9,0.5-5.6,1.4-8c1-2.4,2.3-4.4,4-6.1c1.7-1.7,3.8-3,6.1-3.9c2.3-0.9,4.9-1.4,7.7-1.4h9.7c2.9,0,5.5,0.5,7.9,1.4
	c2.4,0.9,4.4,2.3,6.1,4c1.7,1.7,3,3.8,4,6.1c0.9,2.4,1.4,5,1.4,7.9c0,2.9-0.5,5.5-1.4,8c-1,2.5-2.3,4.6-4,6.4
	c-1.7,1.8-3.8,3.2-6.1,4.3c-2.4,1-5,1.6-7.8,1.6H214.4z M224,111.9c1.8,0,3.5-0.3,5-1c1.5-0.7,2.8-1.6,4-2.7c1.1-1.1,2-2.5,2.6-4.1
	c0.6-1.6,0.9-3.3,0.9-5.2c0-1.9-0.3-3.6-0.9-5.2c-0.6-1.6-1.5-2.9-2.6-4.1c-1.1-1.1-2.4-2-4-2.6c-1.5-0.6-3.2-1-5-1h-9.7
	c-1.8,0-3.4,0.3-4.9,1c-1.5,0.6-2.8,1.5-3.9,2.6c-1.1,1.1-1.9,2.5-2.6,4c-0.6,1.6-0.9,3.3-0.9,5.2c0,1.9,0.3,3.6,0.9,5.2
	c0.6,1.6,1.5,3,2.6,4.1c1.1,1.1,2.4,2,3.9,2.7c1.5,0.7,3.2,1,4.9,1H224z"/>
<g>
	<path class="st1" d="M35.2,212c-1.1-1.8-4.1-3.5-7.5-3.5c-4.5,0-6.6,1.9-6.6,4.2c0,2.8,3.3,3.5,7.1,4c6.6,0.8,12.8,2.5,12.8,10.1
		c0,7.1-6.3,10.1-13.4,10.1c-6.5,0-11.5-2-13.9-7.8l5-2.6c1.4,3.5,5.1,5,9,5c3.8,0,7.3-1.3,7.3-4.8c0-3-3.1-4.2-7.4-4.7
		c-6.5-0.8-12.5-2.5-12.5-9.6c0-6.5,6.5-9.2,12.3-9.3c5,0,10.1,1.4,12.5,6.3L35.2,212z"/>
	<path class="st1" d="M69.4,236.2H45.5c0-10.6,0-21.2,0-31.8h23.8v5.8H51.5v7.3h17.2v5.6H51.5v7.2h17.9V236.2z"/>
	<path class="st1" d="M88.4,217.5l8.5-13.1h7.2v0.3L91.4,223v13.1h-6V223l-12.2-18.4v-0.3h7.1L88.4,217.5z"/>
	<path class="st1" d="M134.4,213.1l-10.4,13.8h-1.2l-10.1-13.9v23.2h-6v-31.8h6.9l10,13.7l10-13.7h6.9v31.8h-6V213.1z"/>
	<path class="st1" d="M174,204.4v18.2c0,9.4-5.8,14.2-13.8,14.2c-7.6,0-14.1-4.6-14.1-14.2v-18.2h6v18.2c0,5.7,3.3,8.8,8.2,8.8
		c5,0,7.8-3.3,7.8-8.8v-18.2H174z"/>
	<path class="st1" d="M208.1,236.2H201l-9.3-10.6h-5.8v10.6h-6v-31.9c5,0,10.1,0,15.1,0c7.5,0,11.5,5,11.5,10.6c0,4.4-2,8.8-8,10
		l9.6,10.9V236.2z M185.9,209.9v10.2h9.1c3.8,0,5.5-2.5,5.5-5.1c0-2.5-1.7-5.1-5.5-5.1H185.9z"/>
	<path class="st1" d="M251.1,220.4c-0.1,8.2-5.1,16.5-16.3,16.5c-11.2,0-16.4-8-16.4-16.4c0-8.4,5.4-16.8,16.4-16.8
		C245.7,203.7,251.1,212.1,251.1,220.4z M224.3,220.6c0.1,5.2,3,10.8,10.5,10.8c7.5,0,10.3-5.6,10.4-10.9
		c0.1-5.4-2.9-11.4-10.4-11.4C227.2,209.2,224.1,215.2,224.3,220.6z"/>
	<path class="st1" d="M283.2,213.1l-10.4,13.8h-1.2l-10.1-13.9v23.2h-6v-31.8h6.9l10,13.7l10-13.7h6.9v31.8h-6V213.1z"/>
	<path class="st1" d="M317.5,230.2h-16.6l-2.7,6h-6.5l14.3-31.8h6.5l14.3,31.8h-6.5L317.5,230.2z M309.1,211l-5.9,13.6H315
		L309.1,211z"/>
	<path class="st1" d="M357.6,236.2h-7.1l-9.3-10.6h-5.8v10.6h-6v-31.9c5,0,10.1,0,15.1,0c7.5,0,11.5,5,11.5,10.6c0,4.4-2,8.8-8,10
		l9.6,10.9V236.2z M335.4,209.9v10.2h9.1c3.8,0,5.5-2.5,5.5-5.1c0-2.5-1.7-5.1-5.5-5.1H335.4z"/>
	<path class="st1" d="M391.4,220.4c-0.1,8.2-5.1,16.5-16.3,16.5c-11.2,0-16.4-8-16.4-16.4c0-8.4,5.4-16.8,16.4-16.8
		C386,203.7,391.4,212.1,391.4,220.4z M364.6,220.6c0.1,5.2,3,10.8,10.5,10.8c7.5,0,10.3-5.6,10.4-10.9c0.1-5.4-2.9-11.4-10.4-11.4
		C367.5,209.2,364.4,215.2,364.6,220.6z"/>
	<path class="st1" d="M411.6,236.3h-6.2l-13.2-32h6.7l9.6,24.8l9.6-24.8h6.7L411.6,236.3z"/>
</g>
<g>
	<g>
		<path class="st0" d="M88.8,255.6l3.5-5.4h3v0.1l-5.2,7.6v5.4h-2.5v-5.4l-5-7.6v-0.1h2.9L88.8,255.6z"/>
		<path class="st0" d="M111.2,256.8c0,3.4-2.1,6.8-6.7,6.8c-4.6,0-6.7-3.3-6.7-6.8c0-3.4,2.2-6.9,6.7-6.9
			C109,249.9,111.2,253.4,111.2,256.8z M100.1,256.9c0.1,2.2,1.2,4.5,4.3,4.5c3.1,0,4.3-2.3,4.3-4.5c0-2.2-1.2-4.7-4.3-4.7
			C101.3,252.2,100.1,254.7,100.1,256.9z"/>
		<path class="st0" d="M126.4,250.2v7.5c0,3.9-2.4,5.9-5.7,5.9c-3.1,0-5.8-1.9-5.8-5.9v-7.5h2.5v7.5c0,2.4,1.4,3.6,3.4,3.6
			c2,0,3.2-1.4,3.2-3.6v-7.5H126.4z"/>
		<path class="st0" d="M142.3,263.3h-2.9l-3.8-4.4h-2.4v4.4h-2.5v-13.1c2.1,0,4.2,0,6.2,0c3.1,0,4.7,2.1,4.7,4.3
			c0,1.8-0.8,3.6-3.3,4.1l4,4.5V263.3z M133.2,252.5v4.2h3.8c1.6,0,2.2-1,2.2-2.1c0-1.1-0.7-2.1-2.2-2.1H133.2z"/>
		<path class="st0" d="M154.3,252.5h-4.2v-2.3c3.8,0,7,0,10.8,0v2.3h-4.2v10.9h-2.5V252.5z"/>
		<path class="st0" d="M173.6,260.9h-6.9l-1.1,2.5h-2.7l5.9-13.1h2.7l5.9,13.1h-2.7L173.6,260.9z M170.2,253l-2.4,5.6h4.9L170.2,253
			z"/>
		<path class="st0" d="M189.5,253.4c-0.9-0.8-2.2-1.3-3.3-1.3c-2.8,0-4.5,2.1-4.5,4.8c0,2.2,1.3,4.4,4.5,4.4c1,0,1.9-0.2,3-1v-2.3
			h-3.4v-2.2h5.6v5.5c-1.3,1.5-2.9,2.4-5.2,2.4c-4.9,0-6.9-3.2-6.9-6.7c0-3.7,2.3-7.1,6.9-7.1c1.8,0,3.5,0.7,4.9,2L189.5,253.4z"/>
		<path class="st0" d="M195.4,263.3v-13.1h2.5v13.1H195.4z"/>
		<path class="st0" d="M210.6,250.2h2.5v13.1h-1.5v0l-6.9-8.9v8.8h-2.5v-13.1h2l6.4,8.1V250.2z"/>
		<path class="st0" d="M227,263.3h-9.8c0-4.4,0-8.8,0-13.1h9.8v2.4h-7.4v3h7.1v2.3h-7.1v3h7.4V263.3z"/>
		<path class="st0" d="M246.2,253.4c-0.9-0.8-2.2-1.3-3.3-1.3c-2.8,0-4.5,2.1-4.5,4.8c0,2.2,1.3,4.4,4.5,4.4c1,0,1.9-0.2,3-1v-2.3
			h-3.4v-2.2h5.6v5.5c-1.3,1.5-2.9,2.4-5.2,2.4c-4.9,0-6.9-3.2-6.9-6.7c0-3.7,2.3-7.1,6.9-7.1c1.8,0,3.5,0.7,4.9,2L246.2,253.4z"/>
		<path class="st0" d="M264.9,256.8c0,3.4-2.1,6.8-6.7,6.8c-4.6,0-6.7-3.3-6.7-6.8c0-3.4,2.2-6.9,6.7-6.9
			C262.7,249.9,265,253.4,264.9,256.8z M253.9,256.9c0.1,2.2,1.2,4.5,4.3,4.5s4.3-2.3,4.3-4.5c0-2.2-1.2-4.7-4.3-4.7
			S253.8,254.7,253.9,256.9z"/>
		<path class="st0" d="M278.4,263.3h-9.8c0-4.4,0-8.8,0-13.1h9.8v2.4H271v3h7.1v2.3H271v3h7.4V263.3z"/>
		<path class="st0" d="M290.7,253.4c-0.4-0.8-1.7-1.5-3.1-1.5c-1.8,0-2.7,0.8-2.7,1.7c0,1.1,1.4,1.5,2.9,1.6c2.7,0.3,5.3,1,5.3,4.2
			c0,2.9-2.6,4.2-5.5,4.2c-2.7,0-4.7-0.8-5.7-3.2l2.1-1.1c0.6,1.4,2.1,2.1,3.7,2.1c1.6,0,3-0.5,3-2c0-1.2-1.3-1.7-3-1.9
			c-2.7-0.3-5.2-1-5.2-4c0-2.7,2.7-3.8,5.1-3.8c2,0,4.2,0.6,5.2,2.6L290.7,253.4z"/>
		<path class="st0" d="M311.5,263.3V258H305v5.3h-2.5v-13.1h2.5v5.5h6.4v-5.5h2.5v13.1H311.5z"/>
		<path class="st0" d="M327.9,263.3h-9.8c0-4.4,0-8.8,0-13.1h9.8v2.4h-7.4v3h7.1v2.3h-7.1v3h7.4V263.3z"/>
		<path class="st0" d="M343.3,263.3h-2.9l-3.8-4.4h-2.4v4.4h-2.5v-13.1c2.1,0,4.2,0,6.2,0c3.1,0,4.7,2.1,4.7,4.3
			c0,1.8-0.8,3.6-3.3,4.1l4,4.5V263.3z M334.2,252.5v4.2h3.8c1.6,0,2.2-1,2.2-2.1c0-1.1-0.7-2.1-2.2-2.1H334.2z"/>
		<path class="st0" d="M356,263.3h-9.8c0-4.4,0-8.8,0-13.1h9.8v2.4h-7.4v3h7.1v2.3h-7.1v3h7.4V263.3z"/>
	</g>
	<rect x="372" y="256" class="st0" width="48" height="1"/>
	<rect x="18" y="256" class="st0" width="48" height="1"/>
</g>
</svg>
