<svg xmlns="http://www.w3.org/2000/svg" viewBox="0 0 411.09 214.99"><defs><style>.cls-1{fill:#23c8e8;}.cls-2{fill:#06cec1;}.cls-3{fill:#efefef;}</style></defs><title>Asset 1</title><g id="Layer_2" data-name="Layer 2"><g id="Layer_1-2" data-name="Layer 1"><path class="cls-1" d="M278.1,75.22C268.45,66,245,65,241.71,65h-5.49c.47,0,.92,1,1.3,2a25,25,0,0,1,1.79,9.54A30.57,30.57,0,0,1,237.52,87c-.06.15-.13,1-.19,1h4.38c8.62,0,14.87,2,17,3.77,4,3.38,5.94,8.37,5.94,15.14,0,6.19-2,11.94-5.94,15.69a24.05,24.05,0,0,1-17,6.4h-101l-16.32,28h117.3c8.21,0,15.37-2.27,21.5-4.57a42.59,42.59,0,0,0,15.23-10.17,40.79,40.79,0,0,0,9.07-14.85,53.06,53.06,0,0,0,3-18.21C290.53,93.93,286.16,82.94,278.1,75.22Z"/><path class="cls-2" d="M134.47,73.88c5.94,5.73,13.59,9.31,21.45,11.57a67.64,67.64,0,0,0,18.9,2.35c-.06,0-2-7.15-2-11.38,0-3.64,2-12.41,2.44-12.41-6.47,0-14.11-.11-19.56-4.14-4.45-3.3-5.86-10.23-5.86-15.42,0-6,1.87-10.87,5.32-14.25S163.67,25,170,25h96.37L282.69,0H170c-7.78,0-14.68,0-20.73,2.22S138.14,6.94,134,10.83a36.57,36.57,0,0,0-9.29,13.65,47.69,47.69,0,0,0-3.13,17.46A46.73,46.73,0,0,0,125,59.8,40.59,40.59,0,0,0,134.47,73.88Z"/><path class="cls-3" d="M215.22,106H196.61c-3.44,0-6.61-1.44-9.52-2.7s-5.41-2.29-7.52-4.5a37.12,37.12,0,0,1-4.75-6.8h-5.25c-3.07,0-6-1.32-8.83-1.71a31.38,31.38,0,0,0,1.53,4.45,35.84,35.84,0,0,0,7.78,12.08A36.65,36.65,0,0,0,181.83,115a36.15,36.15,0,0,0,14.77,3h18.62a37.11,37.11,0,0,0,15-3.13,36.73,36.73,0,0,0,11.83-8.27,37.28,37.28,0,0,0,7.78-12.39c.42-1.07.77-1.06,1.09-2.17-2.71-.75-5.79,0-9.26,0h-4.38a34.22,34.22,0,0,1-4.81,6.4,23.87,23.87,0,0,1-7.62,5.46A24.49,24.49,0,0,1,215.22,106Z"/><path class="cls-3" d="M241.71,61a90.72,90.72,0,0,1,9.44.1c-.35-1.25-.76-2.69-1.23-3.88a35,35,0,0,0-7.67-11.94C239,42,235,40,230.42,38.17S220.76,36,215.22,36H196.61c-5.33,0-10.25.28-14.77,2.06a34.34,34.34,0,0,0-11.78,7.26A33.49,33.49,0,0,0,162.27,57c-.27.66-.47,1.7-.69,2.38A24.57,24.57,0,0,0,169.79,61h6.12c1-1,2.22-4,3.67-5.51,2.1-2.17,4.61-2.65,7.52-3.87s6.08-.62,9.52-.62h18.62c3.5,0,6.73-.82,9.68.4a22.27,22.27,0,0,1,7.62,4.81C234,57.69,235.2,60,236.22,61Z"/><path class="cls-3" d="M200.63,96.82A18.72,18.72,0,0,1,193,95.27,19,19,0,0,1,186.85,91a19.28,19.28,0,0,1-4-6.41,21.87,21.87,0,0,1-1.45-8,21.2,21.2,0,0,1,1.45-8,17.76,17.76,0,0,1,4-6.14A18.19,18.19,0,0,1,193,58.54a20.68,20.68,0,0,1,7.67-1.39h9.66a21.15,21.15,0,0,1,7.89,1.42A17.56,17.56,0,0,1,228.3,68.69a21.16,21.16,0,0,1,1.42,7.89,21.89,21.89,0,0,1-1.44,8,19.29,19.29,0,0,1-4,6.41,19,19,0,0,1-6.14,4.25,19.19,19.19,0,0,1-7.8,1.56Zm9.66-6.93a12.63,12.63,0,0,0,5-1,11.86,11.86,0,0,0,6.55-6.82,14.32,14.32,0,0,0,.93-5.18,14.1,14.1,0,0,0-.93-5.16A11.67,11.67,0,0,0,215.31,65a13,13,0,0,0-5-1h-9.66a12.59,12.59,0,0,0-4.94,1,11.74,11.74,0,0,0-3.9,2.65,12.15,12.15,0,0,0-2.56,4,14,14,0,0,0-.93,5.19,14.27,14.27,0,0,0,.93,5.18,12.35,12.35,0,0,0,2.56,4.12,11.88,11.88,0,0,0,3.9,2.7,12.28,12.28,0,0,0,4.94,1Z"/><path class="cls-3" d="M21.47,190c-1.09-1.82-4.09-3.55-7.55-3.55-4.46,0-6.59,1.87-6.59,4.23,0,2.77,3.27,3.54,7.09,4,6.64.82,12.82,2.54,12.82,10.14,0,7.1-6.28,10.14-13.37,10.14-6.5,0-11.51-2-13.87-7.82l5-2.59c1.41,3.5,5.09,5,9,5s7.32-1.32,7.32-4.78c0-3-3.14-4.23-7.37-4.68-6.5-.77-12.51-2.5-12.51-9.64,0-6.55,6.46-9.23,12.33-9.28,5,0,10.1,1.41,12.51,6.32Z"/><path class="cls-3" d="M55.62,214.17H31.79V182.34H55.62v5.82H37.75v7.32H55v5.59H37.75v7.19H55.62Z"/><path class="cls-3" d="M74.63,195.48l8.46-13.14h7.23v.27L77.63,201v13.14h-6V201L59.4,182.61v-.27h7.14Z"/><path class="cls-3" d="M120.7,191.11l-10.37,13.83h-1.18L99,191.07v23.15H93V182.38h6.91l10,13.69,10-13.69h6.87v31.84h-6Z"/><path class="cls-3" d="M160.27,182.38v18.24c0,9.41-5.78,14.23-13.78,14.23-7.64,0-14.14-4.64-14.14-14.23V182.38h6v18.24c0,5.73,3.27,8.77,8.23,8.77s7.78-3.32,7.78-8.77V182.38Z"/><path class="cls-3" d="M194.38,214.17h-7.14L178,203.53h-5.78v10.64h-6V182.29c5,0,10.1,0,15.14,0,7.5,0,11.46,5,11.46,10.55,0,4.37-2,8.78-8,10l9.64,10.87Zm-22.19-26.24v10.19h9.14c3.82,0,5.46-2.54,5.46-5.09s-1.68-5.09-5.46-5.09Z"/><path class="cls-3" d="M237.31,198.44c-.09,8.23-5.14,16.46-16.33,16.46s-16.37-8-16.37-16.42S210,181.7,221,181.7,237.4,190.11,237.31,198.44Zm-26.79.14c.14,5.23,3,10.82,10.46,10.82s10.32-5.64,10.41-10.87-2.91-11.37-10.41-11.37S210.39,193.21,210.52,198.58Z"/><path class="cls-3" d="M269.46,191.11,259.1,204.94h-1.18l-10.14-13.87v23.15h-6V182.38h6.91l10,13.69,10-13.69h6.87v31.84h-6Z"/><path class="cls-3" d="M303.71,208.17H287.07l-2.73,6h-6.5l14.28-31.84h6.55l14.28,31.84h-6.55ZM295.39,189l-5.91,13.55H301.3Z"/><path class="cls-3" d="M343.87,214.17h-7.14l-9.28-10.64h-5.78v10.64h-6V182.29c5,0,10.1,0,15.14,0,7.51,0,11.46,5,11.46,10.55,0,4.37-2,8.78-8,10l9.64,10.87Zm-22.19-26.24v10.19h9.14c3.82,0,5.46-2.54,5.46-5.09s-1.68-5.09-5.46-5.09Z"/><path class="cls-3" d="M377.61,198.44c-.09,8.23-5.14,16.46-16.33,16.46s-16.37-8-16.37-16.42,5.37-16.78,16.37-16.78S377.71,190.11,377.61,198.44Zm-26.79.14c.14,5.23,3,10.82,10.46,10.82s10.32-5.64,10.41-10.87-2.91-11.37-10.41-11.37S350.69,193.21,350.83,198.58Z"/><path class="cls-3" d="M397.85,214.31h-6.23l-13.24-32h6.73l9.6,24.79,9.64-24.79h6.73Z"/></g></g></svg>