<svg xmlns="http://www.w3.org/2000/svg" viewBox="0 0 168.91 157"><defs><style>.cls-1{fill:#06cec1;}.cls-2{fill:#efefef;}</style></defs><title>solologo</title><g id="Layer_2" data-name="Layer 2"><g id="Layer_1-2" data-name="Layer 1"><path class="cls-1" d="M156.49,75.22C146.83,66,123.42,65,120.09,65H114.6c.47,0,.92,1,1.3,2a25,25,0,0,1,1.79,9.54A30.57,30.57,0,0,1,115.9,87c-.06.15-.13,1-.19,1h4.38c8.62,0,14.87,2,17,3.77,4,3.38,5.94,8.37,5.94,15.14,0,6.19-2,11.94-5.94,15.69a24.05,24.05,0,0,1-17,6.4h-101L2.79,157h117.3c8.21,0,15.37-2.27,21.5-4.57a42.59,42.59,0,0,0,15.23-10.17,40.79,40.79,0,0,0,9.07-14.85,53.06,53.06,0,0,0,3-18.21C168.91,93.93,164.55,82.94,156.49,75.22Z"/><path class="cls-1" d="M12.85,73.88c5.94,5.73,13.59,9.31,21.45,11.57A67.64,67.64,0,0,0,53.2,87.8c-.06,0-2-7.15-2-11.38,0-3.64,2-12.41,2.44-12.41-6.47,0-14.11-.11-19.56-4.14-4.45-3.3-5.86-10.23-5.86-15.42,0-6,1.87-10.87,5.32-14.25S42.05,25,48.38,25h96.37L161.07,0H48.38C40.61,0,33.7,0,27.65,2.22S16.52,6.94,12.42,10.83A36.57,36.57,0,0,0,3.13,24.48,47.69,47.69,0,0,0,0,41.94,46.73,46.73,0,0,0,3.35,59.8,40.59,40.59,0,0,0,12.85,73.88Z"/><path class="cls-2" d="M93.61,106H75c-3.44,0-6.61-1.44-9.52-2.7S60.06,101,58,98.8A37.12,37.12,0,0,1,53.2,92H48c-3.07,0-6-1.32-8.83-1.71a31.38,31.38,0,0,0,1.53,4.45,35.84,35.84,0,0,0,7.78,12.08A36.65,36.65,0,0,0,60.22,115,36.15,36.15,0,0,0,75,118H93.61a37.11,37.11,0,0,0,15-3.13,36.73,36.73,0,0,0,11.83-8.27,37.28,37.28,0,0,0,7.78-12.39c.42-1.07.77-1.06,1.09-2.17-2.71-.75-5.79,0-9.26,0h-4.38a34.22,34.22,0,0,1-4.81,6.4,23.87,23.87,0,0,1-7.62,5.46A24.49,24.49,0,0,1,93.61,106Z"/><path class="cls-2" d="M120.09,61a90.72,90.72,0,0,1,9.44.1c-.35-1.25-.76-2.69-1.23-3.88a35,35,0,0,0-7.67-11.94c-3.3-3.3-7.24-5.29-11.83-7.11S99.14,36,93.61,36H75c-5.33,0-10.25.28-14.77,2.06a34.34,34.34,0,0,0-11.78,7.26A33.49,33.49,0,0,0,40.66,57c-.27.66-.47,1.7-.69,2.38A24.57,24.57,0,0,0,48.17,61h6.12c1-1,2.22-4,3.67-5.51,2.1-2.17,4.61-2.65,7.52-3.87S71.55,51,75,51H93.61c3.5,0,6.73-.82,9.68.4a22.27,22.27,0,0,1,7.62,4.81c1.46,1.48,2.68,3.79,3.7,4.79Z"/><path class="cls-2" d="M79,96.82a18.72,18.72,0,0,1-7.67-1.56A19,19,0,0,1,65.24,91a19.28,19.28,0,0,1-4-6.41,21.87,21.87,0,0,1-1.45-8,21.2,21.2,0,0,1,1.45-8,17.76,17.76,0,0,1,4-6.14,18.19,18.19,0,0,1,6.11-3.93A20.68,20.68,0,0,1,79,57.15h9.66a21.15,21.15,0,0,1,7.89,1.42,17.56,17.56,0,0,1,10.12,10.12,21.16,21.16,0,0,1,1.42,7.89,21.89,21.89,0,0,1-1.44,8,19.29,19.29,0,0,1-4,6.41,19,19,0,0,1-6.14,4.25,19.19,19.19,0,0,1-7.8,1.56Zm9.66-6.93a12.63,12.63,0,0,0,5-1,11.86,11.86,0,0,0,6.55-6.82,14.32,14.32,0,0,0,.93-5.18,14.1,14.1,0,0,0-.93-5.16A11.67,11.67,0,0,0,93.7,65a13,13,0,0,0-5-1H79a12.59,12.59,0,0,0-4.94,1,11.74,11.74,0,0,0-3.9,2.65,12.15,12.15,0,0,0-2.56,4,14,14,0,0,0-.93,5.19,14.27,14.27,0,0,0,.93,5.18,12.35,12.35,0,0,0,2.56,4.12,11.88,11.88,0,0,0,3.9,2.7,12.28,12.28,0,0,0,4.94,1Z"/></g></g></svg>